<?xml version="1.0" encoding="utf-8"?>
<!-- Generator: Adobe Illustrator 25.0.0, SVG Export Plug-In . SVG Version: 6.00 Build 0)  -->
<svg version="1.1" id="Layer_1" xmlns="http://www.w3.org/2000/svg" xmlns:xlink="http://www.w3.org/1999/xlink" x="0px" y="0px"
	 viewBox="0 0 486 345" style="enable-background:new 0 0 486 345;" xml:space="preserve">
<style type="text/css">
	.st0{fill:#AAA5A5;}
</style>
<path class="st0" d="M96.2,49.7H17.1C8.1,49.7-1,57.6,0.2,70.4l38.3,245.3c0,0,45.4-180.7,54.3-224.1c2.7-13,15-17.2,24.1-17.2
	h126.7c0,0-17.2-51.1-18.9-56.7c-2.9-10.8-8.3-16.9-19.1-16.9h-81.3c-8.8,0-17.2,5.6-19.6,15.7C102.3,26.2,96.2,49.7,96.2,49.7z
	 M216,49.7h-98.2c0,0,10.3-24.6,21.4-24.6h52.3C203.2,25.2,216,49.7,216,49.7z M63.5,325.9c-7.6,11.5-18.7,18.4-30.9,18.4h386.2
	c13.3,0,22.6-7.6,25.3-20.4c10.8-53.8,41.2-207.2,41.2-207.2c1.7-12.3-7.4-17.9-15.2-17.9h-79.3V62.8c0-3.9-6.4-13-16.2-13h-92.3
	c-12.8,0-21.4,14.2-21.4,14.2l-17.4,34.9H135.2c-7.9,0-15.5,4.7-16.9,12.3c0,0-39,164.5-42.2,180C74.4,300.2,70.7,315.4,63.5,325.9
	L63.5,325.9z M375.6,98.8H268c0,0,14.2-24.6,27.7-24.6H352C369.4,74.3,375.6,98.8,375.6,98.8L375.6,98.8z"/>
</svg>
