<?xml version="1.0" encoding="utf-8"?>
<!-- Generator: Adobe Illustrator 25.0.0, SVG Export Plug-In . SVG Version: 6.00 Build 0)  -->
<svg version="1.1" id="Layer_1" xmlns="http://www.w3.org/2000/svg" xmlns:xlink="http://www.w3.org/1999/xlink" x="0px" y="0px"
	 viewBox="0 0 977 977" style="enable-background:new 0 0 977 977;" xml:space="preserve">
<style type="text/css">
	.st0{fill:#B2B2B2;}
</style>
<path class="st0" d="M0,122.1c0-32.4,12.9-63.5,35.8-86.4S89.7,0,122.1,0h732.8c32.4,0,63.5,12.9,86.4,35.8
	c22.9,22.9,35.8,54,35.8,86.4v732.8c0,32.4-12.9,63.5-35.8,86.4c-22.9,22.9-54,35.8-86.4,35.8H122.1c-32.4,0-63.5-12.9-86.4-35.8
	C12.9,918.3,0,887.3,0,854.9V122.1z M545.3,402.3l-139.8,17.5l-5,23.2l27.5,5.1c18,4.3,21.5,10.7,17.6,28.6l-45.1,211.8
	c-11.8,54.8,6.4,80.5,49.3,80.5c33.3,0,71.9-15.4,89.5-36.5l5.4-25.4c-12.2,10.7-30,15-41.9,15c-16.8,0-22.9-11.8-18.6-32.5
	L545.3,402.3z M488.5,335.8c16.2,0,31.7-6.4,43.2-17.9c11.5-11.5,17.9-27,17.9-43.2s-6.4-31.7-17.9-43.2
	c-11.5-11.5-27-17.9-43.2-17.9s-31.7,6.4-43.2,17.9c-11.5,11.5-17.9,27-17.9,43.2s6.4,31.7,17.9,43.2
	C456.8,329.4,472.3,335.8,488.5,335.8z"/>
</svg>
