<svg width="977" height="977" viewBox="0 0 977 977" fill="none" xmlns="http://www.w3.org/2000/svg">
<path d="M0 122.125C0 89.7354 12.8667 58.6725 35.7696 35.7696C58.6725 12.8667 89.7354 0 122.125 0L854.875 0C887.265 0 918.328 12.8667 941.23 35.7696C964.133 58.6725 977 89.7354 977 122.125V854.875C977 887.265 964.133 918.328 941.23 941.23C918.328 964.133 887.265 977 854.875 977H122.125C89.7354 977 58.6725 964.133 35.7696 941.23C12.8667 918.328 0 887.265 0 854.875V122.125ZM545.288 402.28L405.455 419.805L400.448 443.008L427.926 448.077C445.878 452.351 449.42 458.824 445.512 476.715L400.448 688.48C388.602 743.253 406.859 769.021 449.786 769.021C483.065 769.021 521.718 753.633 539.243 732.506L544.616 707.104C532.404 717.851 514.574 722.125 502.728 722.125C485.935 722.125 479.829 710.34 484.165 689.579L545.288 402.28ZM488.5 335.844C504.695 335.844 520.226 329.41 531.678 317.959C543.129 306.508 549.562 290.976 549.562 274.781C549.562 258.586 543.129 243.055 531.678 231.604C520.226 220.152 504.695 213.719 488.5 213.719C472.305 213.719 456.774 220.152 445.322 231.604C433.871 243.055 427.438 258.586 427.438 274.781C427.438 290.976 433.871 306.508 445.322 317.959C456.774 329.41 472.305 335.844 488.5 335.844Z" fill="black"/>
</svg>
