<svg width="520" height="520" viewBox="0 0 520 520" fill="none" xmlns="http://www.w3.org/2000/svg">
<g clip-path="url(#clip0)" filter="url(#filter0_d)">
<path d="M436 320H404C399.757 320 395.687 321.686 392.686 324.686C389.686 327.687 388 331.757 388 336V448H68V128H212C216.243 128 220.313 126.314 223.314 123.314C226.314 120.313 228 116.243 228 112V80C228 75.7565 226.314 71.6869 223.314 68.6863C220.313 65.6857 216.243 64 212 64H52C39.2696 64 27.0606 69.0571 18.0589 78.0589C9.05713 87.0606 4 99.2696 4 112L4 464C4 476.73 9.05713 488.939 18.0589 497.941C27.0606 506.943 39.2696 512 52 512H404C416.73 512 428.939 506.943 437.941 497.941C446.943 488.939 452 476.73 452 464V336C452 331.757 450.314 327.687 447.314 324.686C444.313 321.686 440.243 320 436 320ZM492 0H364C342.63 0 331.95 25.91 347 41L382.73 76.73L139 320.37C136.763 322.6 134.987 325.249 133.776 328.166C132.565 331.084 131.941 334.211 131.941 337.37C131.941 340.529 132.565 343.656 133.776 346.574C134.987 349.491 136.763 352.14 139 354.37L161.67 377C163.9 379.237 166.549 381.013 169.466 382.224C172.384 383.435 175.511 384.059 178.67 384.059C181.829 384.059 184.956 383.435 187.874 382.224C190.791 381.013 193.44 379.237 195.67 377L439.28 133.32L475 169C490 184 516 173.5 516 152V24C516 17.6348 513.471 11.5303 508.971 7.02944C504.47 2.52856 498.365 0 492 0V0Z" fill="#FFB800"/>
</g>
<defs>
<filter id="filter0_d" x="0" y="0" width="520" height="520" filterUnits="userSpaceOnUse" color-interpolation-filters="sRGB">
<feFlood flood-opacity="0" result="BackgroundImageFix"/>
<feColorMatrix in="SourceAlpha" type="matrix" values="0 0 0 0 0 0 0 0 0 0 0 0 0 0 0 0 0 0 127 0"/>
<feOffset dy="4"/>
<feGaussianBlur stdDeviation="2"/>
<feColorMatrix type="matrix" values="0 0 0 0 0 0 0 0 0 0 0 0 0 0 0 0 0 0 0.25 0"/>
<feBlend mode="normal" in2="BackgroundImageFix" result="effect1_dropShadow"/>
<feBlend mode="normal" in="SourceGraphic" in2="effect1_dropShadow" result="shape"/>
</filter>
<clipPath id="clip0">
<rect width="512" height="512" fill="white" transform="translate(4)"/>
</clipPath>
</defs>
</svg>
