<?xml version="1.0" encoding="utf-8"?>
<!-- Generator: Adobe Illustrator 25.0.0, SVG Export Plug-In . SVG Version: 6.00 Build 0)  -->
<svg version="1.1" id="Layer_1" xmlns="http://www.w3.org/2000/svg" xmlns:xlink="http://www.w3.org/1999/xlink" x="0px" y="0px"
	 viewBox="0 0 727 907" style="enable-background:new 0 0 727 907;" xml:space="preserve">
<style type="text/css">
	.st0{fill:#B2B2B2;}
</style>
<g>
	<path class="st0" d="M453.2,0.8h-359C44.9,0.8,4.5,41.1,4.5,90.5v718c0,49.4,40.4,89.8,89.7,89.8h538.5c49.4,0,89.8-40.4,89.8-89.8
		V270L453.2,0.8z M363.5,359.8c49.4,0,89.8,40.4,89.8,89.8c0,49.4-40.4,89.8-89.8,89.8c-49.4,0-89.8-40.4-89.8-89.8
		C273.8,400.1,314.1,359.8,363.5,359.8z M543,718.8H184v-25.6c0-36.3,21.5-68.7,54.7-83c39.3-17.2,81.8-26,124.8-26
		s85.4,8.9,124.8,26c16.3,6.9,30.1,18.5,39.8,33.3c9.7,14.8,14.9,32.1,14.9,49.7V718.8z"/>
</g>
</svg>
